# xmcd
#
# Track frame offsets:
#	150
#	15735
#	30310
#	50635
#	63990
#	80580
#	95950
#	116663
#	128685
#	146623
#	169755
#	184460
#	202673
#	215843
#
# Disc length: 3104
#
# Revision: 3
# Processed by: cddbd v1.5.1PL0 Copyright (c) Steve Scherf et al.
# Submitted via: audiograbber 1.83.01
# Normalized: r2:DSETVAR1
#
DISCID=cb0c1e0e
DTITLE=Various Artist - Mr Music Country 1997-05
DYEAR=1997
DGENRE=Country
TTITLE0=Trace Adkins - There's A Girl In Texas
TTITLE1=Charlie Daniels - Fais To Do
TTITLE2=George Ducas - The Invisible Man
TTITLE3=Lisa Brokop - Never Gonna Be Your Fool Again
TTITLE4=Billy Dean - That Girl's Been Spyin' On Me
TTITLE5=Suzy Boguss and Chet Atkins - Two Shades of Blue
TTITLE6=Highwaymen - The Road Goes On Forever
TTITLE7=Bryan Austin - All Dressed Up With No Place To Go
TTITLE8=Tanya Tucker - The Thunder Rolls
TTITLE9=Chris LeDoux - Stampede
TTITLE10=The Cactus Brothers - Highway Patrol
TTITLE11=Pirates Of The Mississippi - When Times Were Good
TTITLE12=Emilio - Even If I Tried
TTITLE13=Eddy Raven - Somebody's Tearin' The Flag
EXTD=
EXTT0=
EXTT1=
EXTT2=
EXTT3=
EXTT4=
EXTT5=
EXTT6=
EXTT7=
EXTT8=
EXTT9=
EXTT10=
EXTT11=
EXTT12=
EXTT13=
PLAYORDER=
